<svg width="22" height="22" viewBox="0 0 22 22" fill="none" xmlns="http://www.w3.org/2000/svg">
<path d="M20.5952 12.3104H19.5824C19.1288 12.3104 18.7064 12.6752 18.584 13.112C17.6648 16.4336 14.6144 18.872 10.9952 18.872C8.528 18.872 6.32 17.7368 4.8776 15.9536C4.592 15.6008 4.6664 15.0416 5 14.7344L7.0352 12.8648C7.3688 12.5576 7.2728 12.3104 6.8192 12.3104H1.3208C0.8672 12.3104 0.5 12.6776 0.5 13.1312V18.0536C0.5 18.5072 0.7712 18.6248 1.1024 18.3176L1.8368 17.6408C2.1704 17.3336 2.6504 17.3864 2.9432 17.7344C4.8704 20.036 7.7648 21.5 10.9952 21.5C16.0712 21.5 20.3 17.9 21.2816 13.1192C21.3752 12.6752 21.0488 12.3104 20.5952 12.3104ZM20.9192 3.7088L20.2016 4.424C19.88 4.7432 19.4144 4.7 19.1264 4.3496C17.2016 2 14.2712 0.5 10.9952 0.5C5.9288 0.5 1.6928 4.0928 0.716 8.8808C0.6248 9.3248 0.9512 9.692 1.4048 9.692H2.4176C2.8712 9.692 3.2936 9.3296 3.4136 8.8928C4.3328 5.5616 7.3832 3.128 10.9952 3.128C13.5536 3.128 15.824 4.34 17.264 6.2264C17.54 6.5864 17.4656 7.1624 17.1464 7.4816L15.5192 9.1112C15.2 9.4328 15.3056 9.692 15.7592 9.692H20.6816C21.1352 9.692 21.5024 9.3248 21.5024 8.8712V3.9488C21.5 3.4952 21.2408 3.3872 20.9192 3.7088Z" fill="#262626"/>
</svg>
