<svg width="164" height="40" viewBox="0 0 164 40" fill="none" xmlns="http://www.w3.org/2000/svg">
<path fill-rule="evenodd" clip-rule="evenodd" d="M163.482 8C163.482 3.58172 159.9 0 155.482 0H8C3.58172 0 0 3.58172 0 8V32C0 36.4183 3.58173 40 8.00001 40H135.026C136.184 40 137.329 39.7484 138.381 39.2626L158.836 29.814C161.668 28.5058 163.482 25.6708 163.482 22.5513V8Z" fill="#46B2C8"/>
<path d="M29.387 9.40625L31.1057 9.9375C30.9182 10.2917 30.4495 11.2917 29.6995 12.9375C28.9703 14.5625 28.1682 16.2396 27.2932 17.9688C26.4182 19.6979 25.564 21.2188 24.7307 22.5312C24.814 23.5521 24.8661 25.1354 24.887 27.2812C24.9078 29.4271 24.9495 30.9688 25.012 31.9062C24.8245 31.9479 24.3453 31.9688 23.5745 31.9688C22.8453 31.9688 22.4078 31.9479 22.262 31.9062C22.3245 31.0104 22.3661 29.4792 22.387 27.3125C22.4286 25.125 22.4911 23.5312 22.5745 22.5312C21.5328 20.8021 20.3661 18.3854 19.0745 15.2812C17.8036 12.1771 16.9911 10.2604 16.637 9.53125L18.7307 9.375L23.6682 20C24.0432 19.3333 24.8974 17.6771 26.2307 15.0312C27.5849 12.3854 28.637 10.5104 29.387 9.40625ZM31.762 21.5312C31.762 20.8229 31.762 20.2917 31.762 19.9375C31.762 19.5625 31.7724 19 31.7932 18.25C31.8349 17.5 31.8765 16.9062 31.9182 16.4688C31.9807 16.0312 32.064 15.4688 32.1682 14.7812C32.2724 14.0729 32.4078 13.5104 32.5745 13.0938C32.7411 12.6562 32.9286 12.1667 33.137 11.625C33.3661 11.0833 33.6474 10.6458 33.9807 10.3125C34.314 9.97917 34.6786 9.66667 35.0745 9.375C35.4703 9.0625 35.939 8.83333 36.4807 8.6875C37.0224 8.54167 37.6161 8.46875 38.262 8.46875C39.5536 8.46875 40.6786 8.72917 41.637 9.25C42.5953 9.75 43.3453 10.3854 43.887 11.1562C44.4286 11.9271 44.8557 12.875 45.1682 14C45.5015 15.125 45.7099 16.1979 45.7932 17.2188C45.8974 18.2396 45.9495 19.3646 45.9495 20.5938C45.9495 21.4271 45.9286 22.1771 45.887 22.8438C45.8661 23.5104 45.8036 24.2708 45.6995 25.125C45.6161 25.9583 45.4807 26.6979 45.2932 27.3438C45.1265 27.9896 44.887 28.6458 44.5745 29.3125C44.262 29.9583 43.887 30.5 43.4495 30.9375C43.0328 31.3542 42.5015 31.6979 41.8557 31.9688C41.2099 32.2396 40.4911 32.375 39.6995 32.375C38.4078 32.375 37.2932 32.2188 36.3557 31.9062C35.439 31.5938 34.6786 31.1562 34.0745 30.5938C33.4911 30.0312 33.0224 29.2917 32.6682 28.375C32.3349 27.4583 32.0953 26.4583 31.9495 25.375C31.8245 24.2917 31.762 23.0104 31.762 21.5312ZM43.6995 21.7812C43.6995 20.7604 43.6161 19.6979 43.4495 18.5938C43.3036 17.4896 43.0432 16.3021 42.6682 15.0312C42.314 13.7604 41.7411 12.7292 40.9495 11.9375C40.1578 11.125 39.2099 10.7188 38.1057 10.7188C37.2724 10.7188 36.5328 11.2812 35.887 12.4062C35.262 13.5104 34.814 14.7604 34.5432 16.1562C34.2724 17.5312 34.137 18.8333 34.137 20.0625C34.137 20.9167 34.137 21.5729 34.137 22.0312C34.1578 22.4688 34.1995 23.1042 34.262 23.9375C34.3245 24.75 34.4078 25.3958 34.512 25.875C34.637 26.3542 34.8245 26.9062 35.0745 27.5312C35.3245 28.1562 35.6161 28.6458 35.9495 29C36.3036 29.3333 36.7515 29.6354 37.2932 29.9062C37.8557 30.1562 38.4807 30.2917 39.1682 30.3125C40.689 30.2292 41.8245 29.375 42.5745 27.75C43.3245 26.125 43.6995 24.1354 43.6995 21.7812ZM60.4807 8.8125L62.3245 8.96875C62.5953 12.8021 62.7307 16.0417 62.7307 18.6875C62.7307 20.6042 62.6786 22.7917 62.5745 25.25C62.5328 26.2917 62.4495 27.1771 62.3245 27.9062C62.1995 28.6146 61.9807 29.3125 61.6682 30C61.3557 30.6875 60.9286 31.2396 60.387 31.6562C59.8661 32.0521 59.1786 32.3646 58.3245 32.5938C57.4703 32.8438 56.439 32.9688 55.2307 32.9688C54.3557 32.9688 53.5849 32.8854 52.9182 32.7188C52.2515 32.5729 51.689 32.375 51.2307 32.125C50.7932 31.875 50.4182 31.5521 50.1057 31.1562C49.7932 30.7396 49.5432 30.3125 49.3557 29.875C49.189 29.4375 49.0536 28.9167 48.9495 28.3125C48.8661 27.7083 48.8036 27.1354 48.762 26.5938C48.7203 26.0521 48.6786 25.4167 48.637 24.6875C48.637 24.625 48.637 24.5833 48.637 24.5625C48.5328 22.0208 48.4807 19.8646 48.4807 18.0938C48.4807 16.5938 48.5432 13.5729 48.6682 9.03125L50.387 9.40625C50.4286 11.3229 50.5432 14.0625 50.7307 17.625C50.9182 21.1667 51.0432 23.6875 51.1057 25.1875C51.1265 25.8958 51.1578 26.4583 51.1995 26.875C51.2411 27.2917 51.3349 27.7708 51.4807 28.3125C51.6474 28.8542 51.8661 29.2708 52.137 29.5625C52.4078 29.8542 52.7932 30.1042 53.2932 30.3125C53.7932 30.5208 54.4078 30.625 55.137 30.625C55.8661 30.625 56.4911 30.5833 57.012 30.5C57.5536 30.3958 57.9911 30.2188 58.3245 29.9688C58.6786 29.7188 58.9599 29.4688 59.1682 29.2188C59.3974 28.9688 59.5745 28.6042 59.6995 28.125C59.8245 27.625 59.9078 27.1979 59.9495 26.8438C60.012 26.4688 60.0745 25.9271 60.137 25.2188C60.2828 23.4271 60.3661 20.5312 60.387 16.5312C60.4078 12.5312 60.439 9.95833 60.4807 8.8125ZM64.8557 30.2188L65.2932 28.4688C67.1057 29.4479 68.887 29.9375 70.637 29.9375C71.887 29.9375 72.9495 29.6875 73.8245 29.1875C74.7203 28.6667 75.1682 27.8333 75.1682 26.6875C75.1682 25.6667 74.7932 24.7396 74.0432 23.9062C73.2932 23.0521 72.387 22.3021 71.3245 21.6562C70.262 21.0104 69.1995 20.3542 68.137 19.6875C67.0745 19 66.1682 18.1667 65.4182 17.1875C64.6682 16.1875 64.2932 15.0833 64.2932 13.875C64.2932 12.3958 64.8245 11.0521 65.887 9.84375C66.9495 8.61458 68.2307 8 69.7307 8C70.8765 8 72.1474 8.22917 73.5432 8.6875C74.9599 9.14583 76.1474 9.60417 77.1057 10.0625L76.7307 11.3125C74.3557 10.5 72.3557 10.0938 70.7307 10.0938C69.7307 10.0938 68.8765 10.4167 68.1682 11.0625C67.4599 11.7083 67.1057 12.5417 67.1057 13.5625C67.1057 14.3333 67.3036 15.0312 67.6995 15.6562C68.0953 16.2812 68.6057 16.8229 69.2307 17.2812C69.8765 17.7396 70.5849 18.1875 71.3557 18.625C72.1474 19.0625 72.9286 19.5312 73.6995 20.0312C74.4703 20.5312 75.1682 21.0729 75.7932 21.6562C76.439 22.2396 76.9599 22.9792 77.3557 23.875C77.7515 24.75 77.9495 25.7396 77.9495 26.8438C77.9495 28.4062 77.4495 29.6875 76.4495 30.6875C75.4495 31.6667 74.1474 32.1562 72.5432 32.1562C71.1682 32.1562 69.6995 31.9688 68.137 31.5938C66.5953 31.1979 65.5015 30.7396 64.8557 30.2188ZM78.5745 11.0312L78.262 9.625L90.1995 8.9375C90.7203 8.95833 91.1578 9.14583 91.512 9.5C91.8661 9.85417 92.0432 10.2396 92.0432 10.6562C92.0432 10.9271 91.939 11.1667 91.7307 11.375C91.5224 11.5833 91.2099 11.7083 90.7932 11.75L85.5432 11.4688C86.064 18.8229 86.4495 25.5104 86.6995 31.5312C86.512 32.1562 86.1578 32.4688 85.637 32.4688C85.262 32.4688 84.8974 32.3125 84.5432 32C84.189 31.7083 83.9703 31.3438 83.887 30.9062C83.9286 29.7812 83.9495 28.0729 83.9495 25.7812C83.9495 24.9271 83.939 23.6458 83.9182 21.9375C83.9182 20.2292 83.9182 18.9479 83.9182 18.0938C83.9182 15.6146 83.9599 13.375 84.0432 11.375C81.689 11.2083 79.8661 11.0938 78.5745 11.0312ZM92.2307 21.5312C92.2307 20.8229 92.2307 20.2917 92.2307 19.9375C92.2307 19.5625 92.2411 19 92.262 18.25C92.3036 17.5 92.3453 16.9062 92.387 16.4688C92.4495 16.0312 92.5328 15.4688 92.637 14.7812C92.7411 14.0729 92.8765 13.5104 93.0432 13.0938C93.2099 12.6562 93.3974 12.1667 93.6057 11.625C93.8349 11.0833 94.1161 10.6458 94.4495 10.3125C94.7828 9.97917 95.1474 9.66667 95.5432 9.375C95.939 9.0625 96.4078 8.83333 96.9495 8.6875C97.4911 8.54167 98.0849 8.46875 98.7307 8.46875C100.022 8.46875 101.147 8.72917 102.106 9.25C103.064 9.75 103.814 10.3854 104.356 11.1562C104.897 11.9271 105.324 12.875 105.637 14C105.97 15.125 106.179 16.1979 106.262 17.2188C106.366 18.2396 106.418 19.3646 106.418 20.5938C106.418 21.4271 106.397 22.1771 106.356 22.8438C106.335 23.5104 106.272 24.2708 106.168 25.125C106.085 25.9583 105.949 26.6979 105.762 27.3438C105.595 27.9896 105.356 28.6458 105.043 29.3125C104.731 29.9583 104.356 30.5 103.918 30.9375C103.502 31.3542 102.97 31.6979 102.324 31.9688C101.679 32.2396 100.96 32.375 100.168 32.375C98.8765 32.375 97.762 32.2188 96.8245 31.9062C95.9078 31.5938 95.1474 31.1562 94.5432 30.5938C93.9599 30.0312 93.4911 29.2917 93.137 28.375C92.8036 27.4583 92.564 26.4583 92.4182 25.375C92.2932 24.2917 92.2307 23.0104 92.2307 21.5312ZM104.168 21.7812C104.168 20.7604 104.085 19.6979 103.918 18.5938C103.772 17.4896 103.512 16.3021 103.137 15.0312C102.783 13.7604 102.21 12.7292 101.418 11.9375C100.627 11.125 99.6786 10.7188 98.5745 10.7188C97.7411 10.7188 97.0015 11.2812 96.3557 12.4062C95.7307 13.5104 95.2828 14.7604 95.012 16.1562C94.7411 17.5312 94.6057 18.8333 94.6057 20.0625C94.6057 20.9167 94.6057 21.5729 94.6057 22.0312C94.6265 22.4688 94.6682 23.1042 94.7307 23.9375C94.7932 24.75 94.8765 25.3958 94.9807 25.875C95.1057 26.3542 95.2932 26.9062 95.5432 27.5312C95.7932 28.1562 96.0849 28.6458 96.4182 29C96.7724 29.3333 97.2203 29.6354 97.762 29.9062C98.3245 30.1562 98.9495 30.2917 99.637 30.3125C101.158 30.2292 102.293 29.375 103.043 27.75C103.793 26.125 104.168 24.1354 104.168 21.7812ZM123.449 32.5L123.949 33.7812C123.012 33.7604 122.033 33.4583 121.012 32.875C119.991 32.2917 119.033 31.5625 118.137 30.6875C117.262 29.7917 116.47 28.8958 115.762 28C115.074 27.0833 114.481 26.1875 113.981 25.3125L111.512 25.0312C111.554 26.5521 111.637 28.9167 111.762 32.125C111.574 32.7708 111.21 33.0938 110.668 33.0938C110.293 33.0938 109.929 32.9375 109.574 32.625C109.241 32.3333 109.033 31.9688 108.949 31.5312C109.012 29.7812 109.074 26.375 109.137 21.3125C109.22 16.25 109.324 12.3333 109.449 9.5625L110.856 9.1875C110.856 9.85417 110.866 10.2292 110.887 10.3125C112.074 9.52083 113.741 9.125 115.887 9.125C118.199 9.125 119.929 9.85417 121.074 11.3125C122.22 12.75 122.793 14.7708 122.793 17.375C122.793 18.3333 122.679 19.2604 122.449 20.1562C122.22 21.0312 121.877 21.8542 121.418 22.625C120.981 23.3958 120.366 24.0312 119.574 24.5312C118.783 25.0312 117.877 25.3229 116.856 25.4062C117.585 26.9271 118.564 28.4062 119.793 29.8438C121.022 31.2812 122.241 32.1667 123.449 32.5ZM111.168 12.4062L111.418 22.1562C112.564 22.7812 113.887 23.0938 115.387 23.0938C116.824 23.0938 118.043 22.5521 119.043 21.4688C120.043 20.3854 120.543 19.0625 120.543 17.5C120.543 15.8125 120.022 14.2917 118.981 12.9375C117.939 11.5833 116.637 10.9062 115.074 10.9062C113.804 10.9062 112.502 11.4062 111.168 12.4062ZM137.449 30.5938L137.762 32C136.949 32 135.47 32.0312 133.324 32.0938C131.199 32.1771 129.658 32.2188 128.699 32.2188C127.158 32.2188 126.106 32.1458 125.543 32C125.752 29.7083 125.877 25.875 125.918 20.5C125.96 15.125 126.095 11.375 126.324 9.25C127.033 9.3125 128.908 9.36458 131.949 9.40625C135.012 9.44792 137.012 9.54167 137.949 9.6875L138.293 11.0938C137.356 11.2604 135.481 11.4583 132.668 11.6875C129.856 11.9167 128.377 12.0417 128.231 12.0625C128.252 12.5417 128.293 13.5208 128.356 15C128.439 16.4792 128.491 17.6979 128.512 18.6562C129.22 18.7396 130.512 18.8646 132.387 19.0312C134.262 19.1771 135.449 19.2708 135.949 19.3125L136.262 20.75C131.866 21.1458 129.293 21.3542 128.543 21.375C128.543 22.2917 128.522 23.6875 128.481 25.5625C128.46 27.4167 128.449 28.7812 128.449 29.6562C133.22 30.0938 136.22 30.4062 137.449 30.5938Z" fill="white"/>
</svg>
