<svg width="161" height="40" viewBox="0 0 161 40" fill="none" xmlns="http://www.w3.org/2000/svg">
<path fill-rule="evenodd" clip-rule="evenodd" d="M161 8C161 3.58172 157.418 0 153 0H8C3.58172 0 0 3.58172 0 8V32C0 36.4183 3.58172 40 8 40H132.925C134.099 40 135.259 39.7415 136.322 39.2429L156.397 29.8271C159.206 28.5096 161 25.6868 161 22.5842V8Z" fill="#46B2C8"/>
<path d="M29.125 9.40625L30.8438 9.9375C30.6562 10.2917 30.1875 11.2917 29.4375 12.9375C28.7083 14.5625 27.9062 16.2396 27.0312 17.9688C26.1562 19.6979 25.3021 21.2188 24.4688 22.5312C24.5521 23.5521 24.6042 25.1354 24.625 27.2812C24.6458 29.4271 24.6875 30.9688 24.75 31.9062C24.5625 31.9479 24.0833 31.9688 23.3125 31.9688C22.5833 31.9688 22.1458 31.9479 22 31.9062C22.0625 31.0104 22.1042 29.4792 22.125 27.3125C22.1667 25.125 22.2292 23.5312 22.3125 22.5312C21.2708 20.8021 20.1042 18.3854 18.8125 15.2812C17.5417 12.1771 16.7292 10.2604 16.375 9.53125L18.4688 9.375L23.4062 20C23.7812 19.3333 24.6354 17.6771 25.9688 15.0312C27.3229 12.3854 28.375 10.5104 29.125 9.40625ZM31.5 21.5312C31.5 20.8229 31.5 20.2917 31.5 19.9375C31.5 19.5625 31.5104 19 31.5312 18.25C31.5729 17.5 31.6146 16.9062 31.6562 16.4688C31.7188 16.0312 31.8021 15.4688 31.9062 14.7812C32.0104 14.0729 32.1458 13.5104 32.3125 13.0938C32.4792 12.6562 32.6667 12.1667 32.875 11.625C33.1042 11.0833 33.3854 10.6458 33.7188 10.3125C34.0521 9.97917 34.4167 9.66667 34.8125 9.375C35.2083 9.0625 35.6771 8.83333 36.2188 8.6875C36.7604 8.54167 37.3542 8.46875 38 8.46875C39.2917 8.46875 40.4167 8.72917 41.375 9.25C42.3333 9.75 43.0833 10.3854 43.625 11.1562C44.1667 11.9271 44.5938 12.875 44.9062 14C45.2396 15.125 45.4479 16.1979 45.5312 17.2188C45.6354 18.2396 45.6875 19.3646 45.6875 20.5938C45.6875 21.4271 45.6667 22.1771 45.625 22.8438C45.6042 23.5104 45.5417 24.2708 45.4375 25.125C45.3542 25.9583 45.2188 26.6979 45.0312 27.3438C44.8646 27.9896 44.625 28.6458 44.3125 29.3125C44 29.9583 43.625 30.5 43.1875 30.9375C42.7708 31.3542 42.2396 31.6979 41.5938 31.9688C40.9479 32.2396 40.2292 32.375 39.4375 32.375C38.1458 32.375 37.0312 32.2188 36.0938 31.9062C35.1771 31.5938 34.4167 31.1562 33.8125 30.5938C33.2292 30.0312 32.7604 29.2917 32.4062 28.375C32.0729 27.4583 31.8333 26.4583 31.6875 25.375C31.5625 24.2917 31.5 23.0104 31.5 21.5312ZM43.4375 21.7812C43.4375 20.7604 43.3542 19.6979 43.1875 18.5938C43.0417 17.4896 42.7812 16.3021 42.4062 15.0312C42.0521 13.7604 41.4792 12.7292 40.6875 11.9375C39.8958 11.125 38.9479 10.7188 37.8438 10.7188C37.0104 10.7188 36.2708 11.2812 35.625 12.4062C35 13.5104 34.5521 14.7604 34.2812 16.1562C34.0104 17.5312 33.875 18.8333 33.875 20.0625C33.875 20.9167 33.875 21.5729 33.875 22.0312C33.8958 22.4688 33.9375 23.1042 34 23.9375C34.0625 24.75 34.1458 25.3958 34.25 25.875C34.375 26.3542 34.5625 26.9062 34.8125 27.5312C35.0625 28.1562 35.3542 28.6458 35.6875 29C36.0417 29.3333 36.4896 29.6354 37.0312 29.9062C37.5938 30.1562 38.2188 30.2917 38.9062 30.3125C40.4271 30.2292 41.5625 29.375 42.3125 27.75C43.0625 26.125 43.4375 24.1354 43.4375 21.7812ZM60.2188 8.8125L62.0625 8.96875C62.3333 12.8021 62.4688 16.0417 62.4688 18.6875C62.4688 20.6042 62.4167 22.7917 62.3125 25.25C62.2708 26.2917 62.1875 27.1771 62.0625 27.9062C61.9375 28.6146 61.7188 29.3125 61.4062 30C61.0938 30.6875 60.6667 31.2396 60.125 31.6562C59.6042 32.0521 58.9167 32.3646 58.0625 32.5938C57.2083 32.8438 56.1771 32.9688 54.9688 32.9688C54.0938 32.9688 53.3229 32.8854 52.6562 32.7188C51.9896 32.5729 51.4271 32.375 50.9688 32.125C50.5312 31.875 50.1562 31.5521 49.8438 31.1562C49.5312 30.7396 49.2812 30.3125 49.0938 29.875C48.9271 29.4375 48.7917 28.9167 48.6875 28.3125C48.6042 27.7083 48.5417 27.1354 48.5 26.5938C48.4583 26.0521 48.4167 25.4167 48.375 24.6875C48.375 24.625 48.375 24.5833 48.375 24.5625C48.2708 22.0208 48.2188 19.8646 48.2188 18.0938C48.2188 16.5938 48.2812 13.5729 48.4062 9.03125L50.125 9.40625C50.1667 11.3229 50.2812 14.0625 50.4688 17.625C50.6562 21.1667 50.7812 23.6875 50.8438 25.1875C50.8646 25.8958 50.8958 26.4583 50.9375 26.875C50.9792 27.2917 51.0729 27.7708 51.2188 28.3125C51.3854 28.8542 51.6042 29.2708 51.875 29.5625C52.1458 29.8542 52.5312 30.1042 53.0312 30.3125C53.5312 30.5208 54.1458 30.625 54.875 30.625C55.6042 30.625 56.2292 30.5833 56.75 30.5C57.2917 30.3958 57.7292 30.2188 58.0625 29.9688C58.4167 29.7188 58.6979 29.4688 58.9062 29.2188C59.1354 28.9688 59.3125 28.6042 59.4375 28.125C59.5625 27.625 59.6458 27.1979 59.6875 26.8438C59.75 26.4688 59.8125 25.9271 59.875 25.2188C60.0208 23.4271 60.1042 20.5312 60.125 16.5312C60.1458 12.5312 60.1771 9.95833 60.2188 8.8125ZM64.5938 30.2188L65.0312 28.4688C66.8438 29.4479 68.625 29.9375 70.375 29.9375C71.625 29.9375 72.6875 29.6875 73.5625 29.1875C74.4583 28.6667 74.9062 27.8333 74.9062 26.6875C74.9062 25.6667 74.5312 24.7396 73.7812 23.9062C73.0312 23.0521 72.125 22.3021 71.0625 21.6562C70 21.0104 68.9375 20.3542 67.875 19.6875C66.8125 19 65.9062 18.1667 65.1562 17.1875C64.4062 16.1875 64.0312 15.0833 64.0312 13.875C64.0312 12.3958 64.5625 11.0521 65.625 9.84375C66.6875 8.61458 67.9688 8 69.4688 8C70.6146 8 71.8854 8.22917 73.2812 8.6875C74.6979 9.14583 75.8854 9.60417 76.8438 10.0625L76.4688 11.3125C74.0938 10.5 72.0938 10.0938 70.4688 10.0938C69.4688 10.0938 68.6146 10.4167 67.9062 11.0625C67.1979 11.7083 66.8438 12.5417 66.8438 13.5625C66.8438 14.3333 67.0417 15.0312 67.4375 15.6562C67.8333 16.2812 68.3438 16.8229 68.9688 17.2812C69.6146 17.7396 70.3229 18.1875 71.0938 18.625C71.8854 19.0625 72.6667 19.5312 73.4375 20.0312C74.2083 20.5312 74.9062 21.0729 75.5312 21.6562C76.1771 22.2396 76.6979 22.9792 77.0938 23.875C77.4896 24.75 77.6875 25.7396 77.6875 26.8438C77.6875 28.4062 77.1875 29.6875 76.1875 30.6875C75.1875 31.6667 73.8854 32.1562 72.2812 32.1562C70.9062 32.1562 69.4375 31.9688 67.875 31.5938C66.3333 31.1979 65.2396 30.7396 64.5938 30.2188ZM78.3125 11.0312L78 9.625L89.9375 8.9375C90.4583 8.95833 90.8958 9.14583 91.25 9.5C91.6042 9.85417 91.7812 10.2396 91.7812 10.6562C91.7812 10.9271 91.6771 11.1667 91.4688 11.375C91.2604 11.5833 90.9479 11.7083 90.5312 11.75L85.2812 11.4688C85.8021 18.8229 86.1875 25.5104 86.4375 31.5312C86.25 32.1562 85.8958 32.4688 85.375 32.4688C85 32.4688 84.6354 32.3125 84.2812 32C83.9271 31.7083 83.7083 31.3438 83.625 30.9062C83.6667 29.7812 83.6875 28.0729 83.6875 25.7812C83.6875 24.9271 83.6771 23.6458 83.6562 21.9375C83.6562 20.2292 83.6562 18.9479 83.6562 18.0938C83.6562 15.6146 83.6979 13.375 83.7812 11.375C81.4271 11.2083 79.6042 11.0938 78.3125 11.0312ZM91.9688 21.5312C91.9688 20.8229 91.9688 20.2917 91.9688 19.9375C91.9688 19.5625 91.9792 19 92 18.25C92.0417 17.5 92.0833 16.9062 92.125 16.4688C92.1875 16.0312 92.2708 15.4688 92.375 14.7812C92.4792 14.0729 92.6146 13.5104 92.7812 13.0938C92.9479 12.6562 93.1354 12.1667 93.3438 11.625C93.5729 11.0833 93.8542 10.6458 94.1875 10.3125C94.5208 9.97917 94.8854 9.66667 95.2812 9.375C95.6771 9.0625 96.1458 8.83333 96.6875 8.6875C97.2292 8.54167 97.8229 8.46875 98.4688 8.46875C99.7604 8.46875 100.885 8.72917 101.844 9.25C102.802 9.75 103.552 10.3854 104.094 11.1562C104.635 11.9271 105.062 12.875 105.375 14C105.708 15.125 105.917 16.1979 106 17.2188C106.104 18.2396 106.156 19.3646 106.156 20.5938C106.156 21.4271 106.135 22.1771 106.094 22.8438C106.073 23.5104 106.01 24.2708 105.906 25.125C105.823 25.9583 105.688 26.6979 105.5 27.3438C105.333 27.9896 105.094 28.6458 104.781 29.3125C104.469 29.9583 104.094 30.5 103.656 30.9375C103.24 31.3542 102.708 31.6979 102.062 31.9688C101.417 32.2396 100.698 32.375 99.9062 32.375C98.6146 32.375 97.5 32.2188 96.5625 31.9062C95.6458 31.5938 94.8854 31.1562 94.2812 30.5938C93.6979 30.0312 93.2292 29.2917 92.875 28.375C92.5417 27.4583 92.3021 26.4583 92.1562 25.375C92.0312 24.2917 91.9688 23.0104 91.9688 21.5312ZM103.906 21.7812C103.906 20.7604 103.823 19.6979 103.656 18.5938C103.51 17.4896 103.25 16.3021 102.875 15.0312C102.521 13.7604 101.948 12.7292 101.156 11.9375C100.365 11.125 99.4167 10.7188 98.3125 10.7188C97.4792 10.7188 96.7396 11.2812 96.0938 12.4062C95.4688 13.5104 95.0208 14.7604 94.75 16.1562C94.4792 17.5312 94.3438 18.8333 94.3438 20.0625C94.3438 20.9167 94.3438 21.5729 94.3438 22.0312C94.3646 22.4688 94.4062 23.1042 94.4688 23.9375C94.5312 24.75 94.6146 25.3958 94.7188 25.875C94.8438 26.3542 95.0312 26.9062 95.2812 27.5312C95.5312 28.1562 95.8229 28.6458 96.1562 29C96.5104 29.3333 96.9583 29.6354 97.5 29.9062C98.0625 30.1562 98.6875 30.2917 99.375 30.3125C100.896 30.2292 102.031 29.375 102.781 27.75C103.531 26.125 103.906 24.1354 103.906 21.7812ZM123.188 32.5L123.688 33.7812C122.75 33.7604 121.771 33.4583 120.75 32.875C119.729 32.2917 118.771 31.5625 117.875 30.6875C117 29.7917 116.208 28.8958 115.5 28C114.812 27.0833 114.219 26.1875 113.719 25.3125L111.25 25.0312C111.292 26.5521 111.375 28.9167 111.5 32.125C111.312 32.7708 110.948 33.0938 110.406 33.0938C110.031 33.0938 109.667 32.9375 109.312 32.625C108.979 32.3333 108.771 31.9688 108.688 31.5312C108.75 29.7812 108.812 26.375 108.875 21.3125C108.958 16.25 109.062 12.3333 109.188 9.5625L110.594 9.1875C110.594 9.85417 110.604 10.2292 110.625 10.3125C111.812 9.52083 113.479 9.125 115.625 9.125C117.938 9.125 119.667 9.85417 120.812 11.3125C121.958 12.75 122.531 14.7708 122.531 17.375C122.531 18.3333 122.417 19.2604 122.188 20.1562C121.958 21.0312 121.615 21.8542 121.156 22.625C120.719 23.3958 120.104 24.0312 119.312 24.5312C118.521 25.0312 117.615 25.3229 116.594 25.4062C117.323 26.9271 118.302 28.4062 119.531 29.8438C120.76 31.2812 121.979 32.1667 123.188 32.5ZM110.906 12.4062L111.156 22.1562C112.302 22.7812 113.625 23.0938 115.125 23.0938C116.562 23.0938 117.781 22.5521 118.781 21.4688C119.781 20.3854 120.281 19.0625 120.281 17.5C120.281 15.8125 119.76 14.2917 118.719 12.9375C117.677 11.5833 116.375 10.9062 114.812 10.9062C113.542 10.9062 112.24 11.4062 110.906 12.4062ZM137.188 30.5938L137.5 32C136.688 32 135.208 32.0312 133.062 32.0938C130.938 32.1771 129.396 32.2188 128.438 32.2188C126.896 32.2188 125.844 32.1458 125.281 32C125.49 29.7083 125.615 25.875 125.656 20.5C125.698 15.125 125.833 11.375 126.062 9.25C126.771 9.3125 128.646 9.36458 131.688 9.40625C134.75 9.44792 136.75 9.54167 137.688 9.6875L138.031 11.0938C137.094 11.2604 135.219 11.4583 132.406 11.6875C129.594 11.9167 128.115 12.0417 127.969 12.0625C127.99 12.5417 128.031 13.5208 128.094 15C128.177 16.4792 128.229 17.6979 128.25 18.6562C128.958 18.7396 130.25 18.8646 132.125 19.0312C134 19.1771 135.188 19.2708 135.688 19.3125L136 20.75C131.604 21.1458 129.031 21.3542 128.281 21.375C128.281 22.2917 128.26 23.6875 128.219 25.5625C128.198 27.4167 128.188 28.7812 128.188 29.6562C132.958 30.0938 135.958 30.4062 137.188 30.5938Z" fill="white"/>
</svg>
