<svg width="512" height="512" viewBox="0 0 512 512" fill="none" xmlns="http://www.w3.org/2000/svg">
<path fill-rule="evenodd" clip-rule="evenodd" d="M512 32C512 14.3269 497.673 0 480 0H32C14.3269 0 0 14.3269 0 32V480C0 497.673 14.3269 512 32 512H409.127C420.977 512 431.857 505.451 437.404 494.979L508.278 361.181C510.722 356.566 512 351.424 512 346.202V32Z" fill="#46B2C8"/>
<path d="M227.625 126.281L249.969 133.188C247.531 137.792 241.438 150.792 231.688 172.188C222.208 193.312 211.781 215.115 200.406 237.594C189.031 260.073 177.927 279.844 167.094 296.906C168.177 310.177 168.854 330.76 169.125 358.656C169.396 386.552 169.938 406.594 170.75 418.781C168.312 419.323 162.083 419.594 152.062 419.594C142.583 419.594 136.896 419.323 135 418.781C135.812 407.135 136.354 387.229 136.625 359.062C137.167 330.625 137.979 309.906 139.062 296.906C125.521 274.427 110.354 243.01 93.5625 202.656C77.0417 162.302 66.4792 137.385 61.875 127.906L89.0938 125.875L153.281 264C158.156 255.333 169.26 233.802 186.594 199.406C204.198 165.01 217.875 140.635 227.625 126.281ZM252.812 396.844L258.5 374.094C282.062 386.823 305.219 393.188 327.969 393.188C344.219 393.188 358.031 389.938 369.406 383.438C381.052 376.667 386.875 365.833 386.875 350.938C386.875 337.667 382 325.615 372.25 314.781C362.5 303.677 350.719 293.927 336.906 285.531C323.094 277.135 309.281 268.604 295.469 259.938C281.656 251 269.875 240.167 260.125 227.438C250.375 214.438 245.5 200.083 245.5 184.375C245.5 165.146 252.406 147.677 266.219 131.969C280.031 115.99 296.688 108 316.188 108C331.083 108 347.604 110.979 365.75 116.938C384.167 122.896 399.604 128.854 412.062 134.812L407.188 151.062C376.312 140.5 350.312 135.219 329.188 135.219C316.188 135.219 305.083 139.417 295.875 147.812C286.667 156.208 282.062 167.042 282.062 180.312C282.062 190.333 284.635 199.406 289.781 207.531C294.927 215.656 301.562 222.698 309.688 228.656C318.083 234.615 327.292 240.438 337.312 246.125C347.604 251.812 357.76 257.906 367.781 264.406C377.802 270.906 386.875 277.948 395 285.531C403.396 293.115 410.167 302.729 415.312 314.375C420.458 325.75 423.031 338.615 423.031 352.969C423.031 373.281 416.531 389.938 403.531 402.938C390.531 415.667 373.604 422.031 352.75 422.031C334.875 422.031 315.781 419.594 295.469 414.719C275.427 409.573 261.208 403.615 252.812 396.844Z" fill="white"/>
</svg>
