<svg width="22" height="17" viewBox="0 0 22 17" fill="none" xmlns="http://www.w3.org/2000/svg">
<path d="M21.46 2C20.69 2.35 19.86 2.58 19 2.69C19.88 2.16 20.56 1.32 20.88 0.31C20.05 0.81 19.13 1.16 18.16 1.36C17.37 0.5 16.26 0 15 0C12.65 0 10.73 1.92 10.73 4.29C10.73 4.63 10.77 4.96 10.84 5.27C7.28001 5.09 4.11001 3.38 2.00001 0.79C1.63001 1.42 1.42001 2.16 1.42001 2.94C1.42001 4.43 2.17001 5.75 3.33001 6.5C2.62001 6.5 1.96001 6.3 1.38001 6C1.38001 6 1.38001 6 1.38001 6.03C1.38001 8.11 2.86001 9.85 4.82001 10.24C4.46001 10.34 4.08001 10.39 3.69001 10.39C3.42001 10.39 3.15001 10.36 2.89001 10.31C3.43001 12 5.00001 13.26 6.89001 13.29C5.43001 14.45 3.58001 15.13 1.56001 15.13C1.22001 15.13 0.880009 15.11 0.540009 15.07C2.44001 16.29 4.70001 17 7.12001 17C15 17 19.33 10.46 19.33 4.79C19.33 4.6 19.33 4.42 19.32 4.23C20.16 3.63 20.88 2.87 21.46 2Z" fill="#262626"/>
</svg>
